<svg width="26" height="26" viewBox="0 0 26 26" xmlns="http://www.w3.org/2000/svg"><title>büyüteç</title><desc>Created with Sketch.</desc><g fill="#fff"><path d="M6.872 16.346L.624 22.593c-.74.74-.788 2.015-.005 2.8.783.782 2.06.756 2.843-.027l6.215-6.214-2.806-2.806M5.707 17.51l1.43 1.43-6.47 6.468-.026.005-.004-.005c-.778-.783-.752-2.075-.012-2.815l5.083-5.083" id="Shape"/><path d="M22.65 3.333c4.4 4.4 4.4 11.533 0 15.933s-11.533 4.4-15.933 0-4.4-11.533 0-15.933 11.533-4.4 15.933 0zm-33.016 13.9c3.217 3.215 8.432 3.215 11.648 0C4.5 14.014 4.5 8.8 1.282 5.582c-3.216-3.216-8.43-3.216-11.648 0-3.217 3.217-3.217 8.432 0 11.65z"/></g></svg>